#N canvas 1236 -20 1920 976 10;
#X declare -lib SDT;
#X msg 860 17 Sound Design Toolkit \; (C) 2001 - 2021 \; \; Project SOb - soundobject.org \; Project CLOSED - closed.ircam.fr \; Project NIW - soundobject.org/niw \; Project SkAT-VG - skatvg.eu;
#X obj 921 150 loadbang;
#X msg 48 279 stiffness \$1;
#X msg 183 278 dissipation \$1;
#X obj 323 119 vsl 15 128 1 4 0 0 empty shape empty 0 -9 0 10 #fcfcfc #000000 #000000 0 1;
#X obj 183 119 vsl 15 128 0 40 0 0 empty dissipation empty 0 -9 0 10 #fcfcfc #000000 #000000 0 1;
#X obj 48 121 vsl 15 128 1000 1e+08 1 0 empty stiffness empty 0 -9 0 10 #fcfcfc #000000 #000000 0 1;
#X floatatom 48 259 10 0 0 0 - - - 0;
#X floatatom 183 257 5 0 0 0 - - - 0;
#X floatatom 323 257 5 0 0 0 - - - 0;
#X text 260 328 Args: 1st obj ID \, 2nd obj ID \, n. of outlets;
#X obj 48 327 impact~ hammerimp objectimp 2;
#X text 6 98 Impact stiffness;
#X text 136 97 Impact dissipation;
#X msg 323 278 shape \$1;
#X obj 652 293 r hammerimp;
#X obj 49 30 r objectimp;
#X obj 588 320 inertial hammerimp;
#X obj 49 55 modal objectimp 3 1;
#X obj 9 303 r imp;
#X msg 860 176 \; hammerimp mass 0.01 \; hammerimp fragmentSize 1 \; objectimp freqs 500 1300 1700 \; objectimp decays 1 0.5 0.25 \; objectimp pickup 0 100 100 100 \; objectimp activeModes 3 \; objectimp fragmentSize 1 \; imp contact0 0 \; imp contact1 0 \; stiffness 1e+07 \; dissipation 1 \; shape 1.5 \;;
#X msg 588 267 strike 0 -3;
#X obj 588 228 bng 32 250 50 0 empty empty empty 17 7 0 10 #fcfcfc #000000 #000000;
#X text 291 97 Contact shape;
#X text 596 208 Strike!;
#X text 48 4 impact~ - Simulates an impact between two solid objects;
#X obj 219 441 *~ 1000;
#X obj 258 357 vsl 30 60 100 10000 0 0 empty empty empty 0 -9 0 10 #fcfcfc #000000 #000000 0 1;
#X obj 970 105 declare -lib SDT;
#X obj 860 129 r pd-dsp-started;
#X obj 338 879 dac~ 1 2;
#X obj 219 481 send~ to_dac;
#X obj 951 568 receive~ to_dac;
#X obj 338 765 vstplugin~ 64 64;
#X f 208;
#X obj 337 821 vstplugin~ 64 2;
#X f 205;
#X msg 45 640 open -e plugins/BinauralDecoder.dll;
#X msg 46 591 open -e plugins/StereoEncoder.dll, f 35;
#X msg 369 703 param_list;
#X obj 1583 821 print;
#X msg 338 671 param_set 6 \$1;
#X obj 378 429 netreceive -u -b;
#X obj 378 459 oscparse;
#X obj 588 173 metro 1000;
#X msg 378 406 listen 8000;
#X obj 378 487 list trim;
#X obj 378 540 float;
#X floatatom 378 566 5 0 1000 0 - - - 0;
#X obj 378 591 / 1000;
#X obj 338 640 float;
#X obj 338 617 - 1;
#X obj 378 515 route angle;
#X msg 338 591 1;
#X obj 588 33 netreceive -u -b;
#X obj 588 63 oscparse;
#X msg 588 10 listen 8000;
#X obj 588 91 list trim;
#X obj 588 119 route start;
#X floatatom 588 146 5 0 0 0 - - - 0;
#X obj 46 565 loadbang;
#X connect 1 0 20 0;
#X connect 2 0 11 0;
#X connect 3 0 11 0;
#X connect 4 0 9 0;
#X connect 5 0 8 0;
#X connect 6 0 7 0;
#X connect 7 0 2 0;
#X connect 8 0 3 0;
#X connect 9 0 14 0;
#X connect 11 1 26 0;
#X connect 14 0 11 0;
#X connect 15 0 17 0;
#X connect 16 0 18 0;
#X connect 19 0 11 0;
#X connect 21 0 17 0;
#X connect 22 0 21 0;
#X connect 26 0 31 0;
#X connect 27 0 26 1;
#X connect 29 0 20 0;
#X connect 32 0 33 0;
#X connect 32 0 33 1;
#X connect 32 0 33 2;
#X connect 32 0 33 3;
#X connect 32 0 33 4;
#X connect 32 0 33 5;
#X connect 32 0 33 6;
#X connect 32 0 33 7;
#X connect 32 0 33 8;
#X connect 32 0 33 9;
#X connect 32 0 33 10;
#X connect 32 0 33 11;
#X connect 32 0 33 12;
#X connect 32 0 33 13;
#X connect 32 0 33 14;
#X connect 32 0 33 15;
#X connect 32 0 33 16;
#X connect 32 0 33 17;
#X connect 32 0 33 18;
#X connect 32 0 33 19;
#X connect 32 0 33 20;
#X connect 32 0 33 21;
#X connect 32 0 33 22;
#X connect 32 0 33 23;
#X connect 32 0 33 24;
#X connect 32 0 33 26;
#X connect 32 0 33 25;
#X connect 32 0 33 27;
#X connect 32 0 33 28;
#X connect 32 0 33 29;
#X connect 32 0 33 30;
#X connect 32 0 33 31;
#X connect 32 0 33 32;
#X connect 32 0 33 33;
#X connect 32 0 33 34;
#X connect 32 0 33 35;
#X connect 32 0 33 37;
#X connect 32 0 33 36;
#X connect 32 0 33 38;
#X connect 32 0 33 39;
#X connect 32 0 33 40;
#X connect 32 0 33 41;
#X connect 32 0 33 42;
#X connect 32 0 33 43;
#X connect 32 0 33 44;
#X connect 32 0 33 45;
#X connect 32 0 33 46;
#X connect 32 0 33 47;
#X connect 32 0 33 48;
#X connect 32 0 33 49;
#X connect 32 0 33 50;
#X connect 32 0 33 51;
#X connect 32 0 33 52;
#X connect 32 0 33 53;
#X connect 32 0 33 54;
#X connect 32 0 33 55;
#X connect 32 0 33 56;
#X connect 32 0 33 57;
#X connect 32 0 33 58;
#X connect 32 0 33 59;
#X connect 32 0 33 61;
#X connect 32 0 33 60;
#X connect 32 0 33 62;
#X connect 32 0 33 63;
#X connect 33 0 34 0;
#X connect 33 1 34 1;
#X connect 33 2 34 2;
#X connect 33 3 34 3;
#X connect 33 4 34 4;
#X connect 33 5 34 5;
#X connect 33 6 34 6;
#X connect 33 7 34 7;
#X connect 33 8 34 8;
#X connect 33 9 34 9;
#X connect 33 10 34 10;
#X connect 33 11 34 11;
#X connect 33 12 34 12;
#X connect 33 13 34 13;
#X connect 33 14 34 14;
#X connect 33 15 34 15;
#X connect 33 16 34 16;
#X connect 33 17 34 17;
#X connect 33 18 34 18;
#X connect 33 19 34 19;
#X connect 33 20 34 20;
#X connect 33 21 34 21;
#X connect 33 22 34 22;
#X connect 33 23 34 23;
#X connect 33 24 34 24;
#X connect 33 25 34 25;
#X connect 33 26 34 26;
#X connect 33 27 34 27;
#X connect 33 28 34 28;
#X connect 33 29 34 29;
#X connect 33 30 34 30;
#X connect 33 31 34 31;
#X connect 33 32 34 32;
#X connect 33 33 34 33;
#X connect 33 34 34 34;
#X connect 33 35 34 35;
#X connect 33 36 34 36;
#X connect 33 37 34 37;
#X connect 33 38 34 38;
#X connect 33 39 34 39;
#X connect 33 40 34 40;
#X connect 33 41 34 41;
#X connect 33 42 34 42;
#X connect 33 43 34 43;
#X connect 33 44 34 44;
#X connect 33 45 34 45;
#X connect 33 46 34 46;
#X connect 33 47 34 47;
#X connect 33 48 34 48;
#X connect 33 49 34 49;
#X connect 33 50 34 50;
#X connect 33 51 34 51;
#X connect 33 52 34 52;
#X connect 33 53 34 53;
#X connect 33 54 34 54;
#X connect 33 55 34 55;
#X connect 33 56 34 56;
#X connect 33 57 34 57;
#X connect 33 58 34 58;
#X connect 33 59 34 59;
#X connect 33 60 34 60;
#X connect 33 61 34 61;
#X connect 33 62 34 62;
#X connect 33 63 34 63;
#X connect 33 64 38 0;
#X connect 34 0 30 0;
#X connect 34 1 30 1;
#X connect 35 0 34 0;
#X connect 36 0 33 0;
#X connect 37 0 33 0;
#X connect 39 0 33 0;
#X connect 40 0 41 0;
#X connect 41 0 44 0;
#X connect 42 0 22 0;
#X connect 43 0 40 0;
#X connect 44 0 50 0;
#X connect 45 0 46 0;
#X connect 46 0 47 0;
#X connect 47 0 49 1;
#X connect 48 0 39 0;
#X connect 49 0 48 0;
#X connect 50 0 45 0;
#X connect 51 0 49 0;
#X connect 52 0 53 0;
#X connect 53 0 55 0;
#X connect 54 0 52 0;
#X connect 55 0 56 0;
#X connect 56 0 57 0;
#X connect 57 0 42 0;
#X connect 58 0 36 0;
#X connect 58 0 35 0;
