#N canvas 937 0 1920 976 12;
#X floatatom 1709 59 5 0 0 0 - - - 0;
#X msg 1709 24 216;
#X obj 1765 215 vsl 15 128 0 100 0 0 empty empty empty 0 -9 0 10 #fcc4c4 #000000 #000000 0 1;
#X obj 1765 360 / 100;
#X obj 481 401 dac~ 1 2;
#X obj 1731 546 tgl 30 0 empty empty empty 17 7 0 10 #fcc4c4 #000000 #000000 0 1;
#X text 1768 549 on/off;
#X obj 1731 494 loadbang;
#X msg 1731 520 0;
#X msg 1748 24 100;
#X obj 1709 732 send~ to_dac;
#X obj 920 123 receive~ to_dac;
#X obj 1765 411 line~;
#X obj 1765 387 pack 0 50;
#X obj 1709 438 *~;
#X obj 1731 617 line~;
#X obj 1709 645 *~;
#X obj 1731 593 pack 0 500;
#X obj 1765 187 loadbang 50;
#N canvas 0 22 450 300 (subpatch) 0;
#X array oscillator 1000 float 0;
#X coords 0 1 999 -1 200 100 1 0 0;
#X restore 1470 518 graph;
#X obj 1494 418 tgl 15 1 empty empty empty 0 -6 0 10 #fcfcfc #000000 #000000 1 1;
#X text 1448 605 -1;
#X text 1454 559 0;
#X text 1454 513 1;
#X text 1515 415 Graph output;
#X obj 1494 441 metro 100;
#X obj 1555 479 tabwrite~ oscillator;
#X obj 1709 95 osc~ 432;
#X obj 198 237 vstplugin~ 64 64;
#X f 208;
#X obj 198 292 vstplugin~ 64 2;
#X f 205;
#X msg 15 112 open -e plugins/BinauralDecoder.dll;
#X msg 16 63 open -e plugins/StereoEncoder.dll, f 35;
#X connect 0 0 27 0;
#X connect 1 0 0 0;
#X connect 2 0 3 0;
#X connect 3 0 13 0;
#X connect 5 0 17 0;
#X connect 7 0 8 0;
#X connect 8 0 5 0;
#X connect 9 0 0 0;
#X connect 11 0 28 0;
#X connect 11 0 28 1;
#X connect 11 0 28 2;
#X connect 11 0 28 3;
#X connect 11 0 28 4;
#X connect 11 0 28 5;
#X connect 11 0 28 6;
#X connect 11 0 28 7;
#X connect 11 0 28 8;
#X connect 11 0 28 9;
#X connect 11 0 28 10;
#X connect 11 0 28 11;
#X connect 11 0 28 12;
#X connect 11 0 28 13;
#X connect 11 0 28 14;
#X connect 11 0 28 15;
#X connect 11 0 28 16;
#X connect 11 0 28 17;
#X connect 11 0 28 18;
#X connect 11 0 28 19;
#X connect 11 0 28 20;
#X connect 11 0 28 21;
#X connect 11 0 28 22;
#X connect 11 0 28 23;
#X connect 11 0 28 24;
#X connect 11 0 28 26;
#X connect 11 0 28 25;
#X connect 11 0 28 27;
#X connect 11 0 28 28;
#X connect 11 0 28 29;
#X connect 11 0 28 30;
#X connect 11 0 28 31;
#X connect 11 0 28 32;
#X connect 11 0 28 33;
#X connect 11 0 28 34;
#X connect 11 0 28 35;
#X connect 11 0 28 37;
#X connect 11 0 28 36;
#X connect 11 0 28 38;
#X connect 11 0 28 39;
#X connect 11 0 28 40;
#X connect 11 0 28 41;
#X connect 11 0 28 42;
#X connect 11 0 28 43;
#X connect 11 0 28 44;
#X connect 11 0 28 45;
#X connect 11 0 28 46;
#X connect 11 0 28 47;
#X connect 11 0 28 48;
#X connect 11 0 28 49;
#X connect 11 0 28 50;
#X connect 11 0 28 51;
#X connect 11 0 28 52;
#X connect 11 0 28 53;
#X connect 11 0 28 54;
#X connect 11 0 28 55;
#X connect 11 0 28 56;
#X connect 11 0 28 57;
#X connect 11 0 28 58;
#X connect 11 0 28 59;
#X connect 11 0 28 61;
#X connect 11 0 28 60;
#X connect 11 0 28 62;
#X connect 11 0 28 63;
#X connect 12 0 14 1;
#X connect 13 0 12 0;
#X connect 14 0 16 0;
#X connect 14 0 26 0;
#X connect 15 0 16 1;
#X connect 16 0 10 0;
#X connect 17 0 15 0;
#X connect 18 0 2 0;
#X connect 20 0 25 0;
#X connect 25 0 26 0;
#X connect 27 0 14 0;
#X connect 28 0 29 0;
#X connect 28 1 29 1;
#X connect 28 2 29 2;
#X connect 28 3 29 3;
#X connect 28 4 29 4;
#X connect 28 5 29 5;
#X connect 28 6 29 6;
#X connect 28 7 29 7;
#X connect 28 8 29 8;
#X connect 28 9 29 9;
#X connect 28 10 29 10;
#X connect 28 11 29 11;
#X connect 28 12 29 12;
#X connect 28 13 29 13;
#X connect 28 14 29 14;
#X connect 28 15 29 15;
#X connect 28 16 29 16;
#X connect 28 17 29 17;
#X connect 28 18 29 18;
#X connect 28 19 29 19;
#X connect 28 20 29 20;
#X connect 28 21 29 21;
#X connect 28 22 29 22;
#X connect 28 23 29 23;
#X connect 28 24 29 24;
#X connect 28 25 29 25;
#X connect 28 26 29 26;
#X connect 28 27 29 27;
#X connect 28 28 29 28;
#X connect 28 29 29 29;
#X connect 28 30 29 30;
#X connect 28 31 29 31;
#X connect 28 32 29 32;
#X connect 28 33 29 33;
#X connect 28 34 29 34;
#X connect 28 35 29 35;
#X connect 28 36 29 36;
#X connect 28 37 29 37;
#X connect 28 38 29 38;
#X connect 28 39 29 39;
#X connect 28 40 29 40;
#X connect 28 41 29 41;
#X connect 28 42 29 42;
#X connect 28 43 29 43;
#X connect 28 44 29 44;
#X connect 28 45 29 45;
#X connect 28 46 29 46;
#X connect 28 47 29 47;
#X connect 28 48 29 48;
#X connect 28 49 29 49;
#X connect 28 50 29 50;
#X connect 28 51 29 51;
#X connect 28 52 29 52;
#X connect 28 53 29 53;
#X connect 28 54 29 54;
#X connect 28 55 29 55;
#X connect 28 56 29 56;
#X connect 28 57 29 57;
#X connect 28 58 29 58;
#X connect 28 59 29 59;
#X connect 28 60 29 60;
#X connect 28 61 29 61;
#X connect 28 62 29 62;
#X connect 28 63 29 63;
#X connect 29 0 4 0;
#X connect 29 1 4 1;
#X connect 30 0 29 0;
#X connect 31 0 28 0;
